<svg width="41" height="42" fill="none" xmlns="http://www.w3.org/2000/svg"><path d="M37.145 10.567a13.686 13.686 0 01-3.93 1.057 6.808 6.808 0 003.002-3.763 13.474 13.474 0 01-4.331 1.65 6.808 6.808 0 00-4.987-2.158 6.823 6.823 0 00-6.825 6.829c0 .528.064 1.056.168 1.564A19.396 19.396 0 016.17 8.602a6.777 6.777 0 00-.928 3.446 6.83 6.83 0 003.042 5.688 6.884 6.884 0 01-3.086-.869v.084a6.826 6.826 0 005.471 6.7 7.214 7.214 0 01-1.797.233 9.1 9.1 0 01-1.289-.104 6.838 6.838 0 006.38 4.735 13.68 13.68 0 01-8.473 2.918c-.572 0-1.1-.02-1.65-.084a19.327 19.327 0 0010.484 3.062c12.552 0 19.42-10.4 19.42-19.425 0-.296 0-.592-.02-.889a14.7 14.7 0 003.422-3.53z" fill="#EF2779"/></svg>