<svg width="26" height="33" fill="none" xmlns="http://www.w3.org/2000/svg"><g clip-path="url(#clip0)" fill="#EF2779"><path d="M13.001 19.555a6.34 6.34 0 006.334-6.333A6.34 6.34 0 0013 6.889a6.34 6.34 0 00-6.333 6.333A6.34 6.34 0 0013 19.555zm0-9.5a3.17 3.17 0 013.167 3.167 3.17 3.17 0 01-3.167 3.167 3.17 3.17 0 01-3.166-3.167A3.17 3.17 0 0113 10.055z"/><path d="M11.748 31.927a1.58 1.58 0 001.837 0c.481-.34 11.794-8.508 11.748-18.705 0-6.984-5.682-12.667-12.666-12.667S0 6.238 0 13.214c-.046 10.205 11.267 18.373 11.748 18.713zm.919-28.205c5.24 0 9.5 4.26 9.5 9.508.033 7.027-6.948 13.336-9.5 15.406-2.55-2.071-9.533-8.383-9.5-15.414 0-5.24 4.26-9.5 9.5-9.5z"/></g><defs><clipPath id="clip0"><path fill="#fff" transform="translate(0 .389)" d="M0 0h26v32H0z"/></clipPath></defs></svg>