<svg width="41" height="42" viewBox="0 0 41 42" fill="none" xmlns="http://www.w3.org/2000/svg">
<path d="M37.1455 10.5671C35.9207 11.0955 34.5878 11.4757 33.2149 11.6238C34.6403 10.777 35.7077 9.4392 36.2168 7.86137C34.8793 8.65705 33.414 9.21499 31.886 9.51044C31.2474 8.82771 30.475 8.28381 29.617 7.91264C28.7589 7.54147 27.8337 7.35098 26.8988 7.35304C23.1163 7.35304 20.0744 10.419 20.0744 14.1815C20.0744 14.7098 20.1384 15.2382 20.2425 15.7465C14.5788 15.4503 9.52753 12.7445 6.16936 8.60185C5.55746 9.64699 5.2368 10.837 5.24075 12.0481C5.24075 14.4176 6.44553 16.507 8.28273 17.7358C7.20004 17.6931 6.14271 17.3956 5.19672 16.8672V16.9513C5.19672 20.2694 7.54225 23.0192 10.6683 23.6516C10.0813 23.8041 9.47753 23.8821 8.87111 23.8838C8.42682 23.8838 8.00655 23.8397 7.58227 23.7797C8.44683 26.4855 10.9645 28.4507 13.9624 28.5148C11.6169 30.352 8.67898 31.4327 5.48891 31.4327C4.91654 31.4327 4.3882 31.4127 3.83984 31.3486C6.86581 33.2899 10.4561 34.4106 14.3226 34.4106C26.8748 34.4106 33.7432 24.0119 33.7432 14.986C33.7432 14.6898 33.7432 14.3936 33.7232 14.0974C35.0521 13.1248 36.2168 11.92 37.1455 10.5671Z" fill="#EF2779"/>
</svg>
