<svg width="42" height="42" viewBox="0 0 42 42" fill="none" xmlns="http://www.w3.org/2000/svg">
<path d="M36.197 4.87158H6.73786C6.0294 4.87158 5.45703 5.44395 5.45703 6.15241V35.6115C5.45703 36.32 6.0294 36.8924 6.73786 36.8924H36.197C36.9054 36.8924 37.4778 36.32 37.4778 35.6115V6.15241C37.4778 5.44395 36.9054 4.87158 36.197 4.87158ZM14.9552 32.1573H10.2041V16.8754H14.9552V32.1573ZM12.5817 14.786C12.037 14.786 11.5046 14.6245 11.0517 14.3219C10.5989 14.0193 10.2459 13.5892 10.0375 13.0861C9.82906 12.5829 9.77453 12.0292 9.88078 11.495C9.98704 10.9608 10.2493 10.4701 10.6344 10.085C11.0196 9.69988 11.5102 9.43761 12.0444 9.33135C12.5786 9.2251 13.1323 9.27963 13.6355 9.48806C14.1387 9.69649 14.5688 10.0494 14.8713 10.5023C15.1739 10.9552 15.3354 11.4876 15.3354 12.0322C15.3314 13.5532 14.0986 14.786 12.5817 14.786ZM32.7427 32.1573H27.9957V24.7245C27.9957 22.9513 27.9636 20.6738 25.5261 20.6738C23.0565 20.6738 22.6762 22.6031 22.6762 24.5964V32.1573H17.9331V16.8754H22.4881V18.9647H22.5521C23.1845 17.7639 24.7335 16.4951 27.047 16.4951C31.8582 16.4951 32.7427 19.6612 32.7427 23.7758V32.1573Z" fill="#EF2779"/>
</svg>
