<svg width="27" height="23" viewBox="0 0 27 23" fill="none" xmlns="http://www.w3.org/2000/svg">
<path d="M25.3125 1.07617H0.9375C0.418945 1.07617 0 1.49512 0 2.01367V20.7637C0 21.2822 0.418945 21.7012 0.9375 21.7012H25.3125C25.8311 21.7012 26.25 21.2822 26.25 20.7637V2.01367C26.25 1.49512 25.8311 1.07617 25.3125 1.07617ZM24.1406 4.32227V19.5918H2.10938V4.32227L1.30078 3.69238L2.45215 2.21289L3.70605 3.18848H22.5469L23.8008 2.21289L24.9521 3.69238L24.1406 4.32227ZM22.5469 3.18555L13.125 10.5098L3.70312 3.18555L2.44922 2.20996L1.29785 3.68945L2.10645 4.31934L12.1143 12.1006C12.4021 12.3242 12.7561 12.4456 13.1206 12.4456C13.4851 12.4456 13.8391 12.3242 14.127 12.1006L24.1406 4.32227L24.9492 3.69238L23.7979 2.21289L22.5469 3.18555Z" fill="#EF2779"/>
</svg>
