<svg width="42" height="42" viewBox="0 0 42 42" fill="none" xmlns="http://www.w3.org/2000/svg">
<path d="M36.2126 4.87158H6.75349C6.04503 4.87158 5.47266 5.44395 5.47266 6.15241V35.6115C5.47266 36.32 6.04503 36.8924 6.75349 36.8924H36.2126C36.9211 36.8924 37.4934 36.32 37.4934 35.6115V6.15241C37.4934 5.44395 36.9211 4.87158 36.2126 4.87158ZM32.5142 14.2176H29.9565C27.9512 14.2176 27.563 15.1703 27.563 16.5712V19.6572H32.3501L31.7257 24.4883H27.563V36.8924H22.5718V24.4923H18.397V19.6572H22.5718V16.0949C22.5718 11.9602 25.0974 9.70672 28.7878 9.70672C30.5569 9.70672 32.0739 9.83881 32.5182 9.89884V14.2176H32.5142Z" fill="#EF2779"/>
</svg>
