<svg width="26" height="33" viewBox="0 0 26 33" fill="none" xmlns="http://www.w3.org/2000/svg">
<g clip-path="url(#clip0)">
<path d="M13.0013 19.5553C16.4941 19.5553 19.3346 16.7148 19.3346 13.222C19.3346 9.72917 16.4941 6.88867 13.0013 6.88867C9.50847 6.88867 6.66797 9.72917 6.66797 13.222C6.66797 16.7148 9.50847 19.5553 13.0013 19.5553ZM13.0013 10.0553C14.7477 10.0553 16.168 11.4756 16.168 13.222C16.168 14.9684 14.7477 16.3887 13.0013 16.3887C11.2549 16.3887 9.83464 14.9684 9.83464 13.222C9.83464 11.4756 11.2549 10.0553 13.0013 10.0553Z" fill="#EF2779"/>
<path d="M11.7485 31.9273C12.0164 32.1187 12.3375 32.2216 12.6668 32.2216C12.9961 32.2216 13.3172 32.1187 13.5851 31.9273C14.0665 31.5869 25.3794 23.4185 25.3335 13.2218C25.3335 6.23776 19.6509 0.555176 12.6668 0.555176C5.68272 0.555176 0.000139393 6.23776 0.000139393 13.2139C-0.0457773 23.4185 11.2671 31.5869 11.7485 31.9273ZM12.6668 3.72184C17.9061 3.72184 22.1668 7.98259 22.1668 13.2298C22.2001 20.2566 15.2191 26.5662 12.6668 28.6356C10.1161 26.5646 3.13356 20.2534 3.16681 13.2218C3.16681 7.98259 7.42756 3.72184 12.6668 3.72184Z" fill="#EF2779"/>
</g>
<defs>
<clipPath id="clip0">
<rect width="26" height="32" fill="white" transform="translate(0 0.388672)"/>
</clipPath>
</defs>
</svg>
